<svg height="512pt" viewBox="0 -104 512 512" width="512pt" xmlns="http://www.w3.org/2000/svg"><path d="m389.140625 59.996094c-14.640625 0-28.8125 2.480468-42.292969 7.390625-27.402344-41.890625-74.246094-67.386719-125.335937-67.386719-36.285157 0-71.269531 13.03125-98.5 36.699219-24.117188 20.953125-40.691407 48.894531-47.429688 79.605469-19.199219 4.019531-36.730469 13.828124-50.246093 28.292968-16.335938 17.492188-25.335938 40.25-25.335938 64.089844 0 24.589844 9.496094 47.871094 26.742188 65.5625 16.746093 17.179688 39.085937 27.332031 63.066406 28.710938.757812.117187 1.53125.175781 2.320312.175781h150.082032v-131.5l-39.730469 39.445312c-5.890625 5.847657-15.40625 5.816407-21.253907-.074219-5.851562-5.890624-5.816406-15.40625.074219-21.257812l65.351563-64.878906c.003906-.003906.007812-.003906.011718-.007813 2.714844-2.691406 6.453126-4.355469 10.574219-4.355469 4.21875 0 8.023438 1.742188 10.753907 4.539063.011718.011719.027343.015625.042968.03125l62.867188 64.882813c5.773437 5.960937 5.625 15.472656-.335938 21.25-2.917968 2.828124-6.691406 4.234374-10.457031 4.238281-3.925781 0-7.847656-1.53125-10.796875-4.574219l-37.042969-38.230469v130.492188h121.769531c.90625 0 1.789063-.078125 2.648438-.230469 30.859375-1.851562 59.582031-15 81.082031-37.152344 22.074219-22.746094 34.230469-52.644531 34.230469-84.1875 0-67.03125-55.113281-121.570312-122.859375-121.570312zm0 0"/></svg>